<svg xmlns="http://www.w3.org/2000/svg" viewBox="0 0 72 72"><style type="text/css">.circle{fill:#231F20;} .logo{fill:#FFFFFF;} .st0{fill:#FFFFFF;}</style><path class="logo" d="M44.067 26.585c-.61.397-.916.992-.916 1.786v2.383h7.236v9.523H43.15v19.23h-9.52v-19.23h-7.234V30.75h7.234v-4.76c0-1.22.275-2.41.824-3.57.55-1.16 1.328-2.183 2.335-3.068 1.006-.885 2.18-1.602 3.524-2.152s2.808-.824 4.395-.824h8.057v9.615h-7.142c-.427 0-.946.2-1.556.596zm0 0c-.61.397-.916.992-.916 1.786v2.383h7.236v9.523H43.15v19.23h-9.52v-19.23h-7.234V30.75h7.234v-4.76c0-1.22.275-2.41.824-3.57.55-1.16 1.328-2.183 2.335-3.068 1.006-.885 2.18-1.602 3.524-2.152s2.808-.824 4.395-.824h8.057v9.615h-7.142c-.427 0-.946.2-1.556.596z"/></svg>