<svg xmlns="http://www.w3.org/2000/svg" viewBox="0 0 72 72"><style type="text/css">.circle{fill:#231F20;} .logo{fill:#FFFFFF;} .st0{fill:#FFFFFF;}</style><path class="logo" d="M35.887 38.312c.766.64 1.595 1.34 2.49 2.107.893.764 1.722 1.696 2.488 2.793.767 1.098 1.15 2.49 1.15 4.174 0 2.605-1.124 4.902-3.37 6.894-2.504 2.095-5.9 3.14-10.188 3.14-1.174 0-2.4-.126-3.677-.38-1.276-.257-2.476-.678-3.6-1.265-1.123-.587-2.042-1.366-2.757-2.336-.715-.97-1.072-2.17-1.072-3.6 0-1.073.283-2.17.845-3.295.56-1.02 1.353-1.902 2.374-2.642 1.02-.74 2.194-1.315 3.522-1.723 2.503-.766 4.98-1.174 7.43-1.225-1.07-1.277-1.607-2.477-1.607-3.6 0-.408.076-.766.23-1.072.05-.102.102-.268.153-.498s.102-.396.154-.498c-.306 0-.6.013-.88.038-.282.026-.55.038-.805.038-2.502 0-4.57-.79-6.204-2.374-1.735-1.585-2.604-3.577-2.604-5.977 0-2.247.765-4.264 2.297-6.05 1.532-1.84 3.446-2.988 5.745-3.448.765-.153 1.518-.28 2.258-.383.74-.102 1.494-.153 2.26-.153h10.646l-3.294 1.914h-3.294c1.226.817 2.12 1.838 2.68 3.064.614 1.326.92 2.705.92 4.135 0 1.175-.18 2.234-.536 3.18-.357.943-.817 1.697-1.38 2.258-.816.87-1.607 1.648-2.373 2.337-.768.688-1.15 1.467-1.15 2.335 0 .767.382 1.47 1.15 2.107zM33.59 55.125c.918-.205 1.748-.523 2.488-.957.74-.434 1.328-1.008 1.762-1.723s.65-1.608.65-2.68c0-.358-.024-.704-.076-1.035-.05-.332-.127-.626-.23-.88-.102-.257-.256-.537-.46-.844-.204-.256-.37-.485-.497-.69-.128-.204-.344-.46-.65-.766-.205-.153-.435-.357-.69-.613-.103-.05-.205-.127-.306-.23-.1-.102-.254-.23-.46-.382l-.764-.536c-.153-.105-.408-.283-.766-.538l-.767-.536c-.102 0-.27-.013-.498-.04-.23-.024-.472-.037-.728-.037-1.736 0-3.446.255-5.132.765-1.328.408-2.45 1.06-3.37 1.953-.92.893-1.38 2.106-1.38 3.638 0 1.123.282 2.106.844 2.948.56.843 1.325 1.52 2.295 2.03 1.787.97 3.78 1.456 5.974 1.456.92 0 1.84-.102 2.76-.307zm.956-22.442c.69-.97 1.034-2.272 1.034-3.906 0-2.043-.51-4.136-1.532-6.28-.51-1.023-1.2-1.865-2.068-2.53-.868-.663-1.838-.994-2.91-.994-1.48 0-2.63.562-3.447 1.685-.817 1.124-1.225 2.45-1.225 3.983 0 .92.14 1.94.42 3.066.282 1.124.716 2.157 1.303 3.102.59.944 1.304 1.736 2.147 2.374.843.64 1.8.958 2.872.958 1.582 0 2.72-.485 3.407-1.455zm23.247-6.357h-6.28v6.204H48.45v-6.204h-6.207v-3.14h6.205v-6.204h3.062v6.204h6.28v3.14zM35.887 38.312c.766.64 1.595 1.34 2.49 2.107.893.764 1.722 1.696 2.488 2.793.767 1.098 1.15 2.49 1.15 4.174 0 2.605-1.124 4.902-3.37 6.894-2.504 2.095-5.9 3.14-10.188 3.14-1.174 0-2.4-.126-3.677-.38-1.276-.257-2.476-.678-3.6-1.265-1.123-.587-2.042-1.366-2.757-2.336-.715-.97-1.072-2.17-1.072-3.6 0-1.073.283-2.17.845-3.295.56-1.02 1.353-1.902 2.374-2.642 1.02-.74 2.194-1.315 3.522-1.723 2.503-.766 4.98-1.174 7.43-1.225-1.07-1.277-1.607-2.477-1.607-3.6 0-.408.076-.766.23-1.072.05-.102.102-.268.153-.498s.102-.396.154-.498c-.306 0-.6.013-.88.038-.282.026-.55.038-.805.038-2.502 0-4.57-.79-6.204-2.374-1.735-1.585-2.604-3.577-2.604-5.977 0-2.247.765-4.264 2.297-6.05 1.532-1.84 3.446-2.988 5.745-3.448.765-.153 1.518-.28 2.258-.383.74-.102 1.494-.153 2.26-.153h10.646l-3.294 1.914h-3.294c1.226.817 2.12 1.838 2.68 3.064.614 1.326.92 2.705.92 4.135 0 1.175-.18 2.234-.536 3.18-.357.943-.817 1.697-1.38 2.258-.816.87-1.607 1.648-2.373 2.337-.768.688-1.15 1.467-1.15 2.335 0 .767.382 1.47 1.15 2.107zM33.59 55.125c.918-.205 1.748-.523 2.488-.957.74-.434 1.328-1.008 1.762-1.723s.65-1.608.65-2.68c0-.358-.024-.704-.076-1.035-.05-.332-.127-.626-.23-.88-.102-.257-.256-.537-.46-.844-.204-.256-.37-.485-.497-.69-.128-.204-.344-.46-.65-.766-.205-.153-.435-.357-.69-.613-.103-.05-.205-.127-.306-.23-.1-.102-.254-.23-.46-.382l-.764-.536c-.153-.105-.408-.283-.766-.538l-.767-.536c-.102 0-.27-.013-.498-.04-.23-.024-.472-.037-.728-.037-1.736 0-3.446.255-5.132.765-1.328.408-2.45 1.06-3.37 1.953-.92.893-1.38 2.106-1.38 3.638 0 1.123.282 2.106.844 2.948.56.843 1.325 1.52 2.295 2.03 1.787.97 3.78 1.456 5.974 1.456.92 0 1.84-.102 2.76-.307zm.956-22.442c.69-.97 1.034-2.272 1.034-3.906 0-2.043-.51-4.136-1.532-6.28-.51-1.023-1.2-1.865-2.068-2.53-.868-.663-1.838-.994-2.91-.994-1.48 0-2.63.562-3.447 1.685-.817 1.124-1.225 2.45-1.225 3.983 0 .92.14 1.94.42 3.066.282 1.124.716 2.157 1.303 3.102.59.944 1.304 1.736 2.147 2.374.843.64 1.8.958 2.872.958 1.582 0 2.72-.485 3.407-1.455zm23.247-6.357h-6.28v6.204H48.45v-6.204h-6.207v-3.14h6.205v-6.204h3.062v6.204h6.28v3.14z"/></svg>
