<svg xmlns="http://www.w3.org/2000/svg" viewBox="0 0 72 72"><style type="text/css">.circle{fill:#231F20;} .logo{fill:#FFFFFF;} .st0{fill:#FFFFFF;}</style><path class="st0" d="M55.84 27.698v1.298c0 3.09-.586 6.228-1.76 9.41-1.175 3.184-2.89 6.06-5.147 8.624s-5.053 4.667-8.39 6.305-7.17 2.457-11.498 2.457c-2.72 0-5.285-.37-7.696-1.113-2.413-.744-4.67-1.795-6.77-3.154.37.062.74.108 1.112.14s.742.045 1.113.045c2.225 0 4.342-.37 6.35-1.112s3.818-1.732 5.425-2.968c-2.1-.062-3.94-.695-5.516-1.9-1.576-1.206-2.673-2.767-3.292-4.683.31.123.603.184.88.184h.882c.865 0 1.67-.092 2.41-.277-2.162-.495-3.955-1.592-5.377-3.292-1.422-1.7-2.133-3.693-2.133-5.98v-.093c.68.31 1.36.572 2.04.788.68.216 1.422.325 2.225.325-1.238-.865-2.243-1.978-3.015-3.338-.773-1.36-1.16-2.843-1.16-4.45 0-1.732.434-3.308 1.3-4.73 2.348 2.843 5.19 5.146 8.53 6.908 3.337 1.762 6.953 2.735 10.847 2.92-.185-.74-.278-1.452-.278-2.132 0-1.297.247-2.518.742-3.66.495-1.145 1.174-2.15 2.04-3.014s1.87-1.545 3.013-2.04c1.143-.495 2.363-.742 3.66-.742 1.36 0 2.628.263 3.803.788 1.174.525 2.194 1.252 3.06 2.18 1.113-.186 2.163-.48 3.152-.882s1.947-.88 2.874-1.437c-.743 2.288-2.134 4.05-4.173 5.286 1.978-.31 3.802-.804 5.47-1.484-1.358 1.98-2.934 3.588-4.727 4.824z"/></svg>